<?xml version="1.0" standalone="no"?>
<!DOCTYPE svg PUBLIC "-//W3C//DTD SVG 20010904//EN"
 "http://www.w3.org/TR/2001/REC-SVG-20010904/DTD/svg10.dtd">
<svg version="1.0" xmlns="http://www.w3.org/2000/svg"
 width="1024.000000pt" height="1024.000000pt" viewBox="0 0 1024.000000 1024.000000"
 preserveAspectRatio="xMidYMid meet">
<metadata>
Created by potrace 1.11, written by Peter Selinger 2001-2013
</metadata>
<g transform="translate(0.000000,1024.000000) scale(0.100000,-0.100000)"
fill="#000000" stroke="none">
<path d="M2995 6040 l-820 -820 390 0 390 0 430 430 c236 237 433 430 436 430
3 0 95 -89 204 -197 l197 -198 -199 -3 -199 -2 -229 -230 -230 -230 2316 0
2316 0 -509 509 c-280 280 -516 515 -524 522 -13 11 -42 -14 -204 -177 l-189
-189 96 -96 c54 -56 93 -102 89 -108 -10 -16 -782 -16 -792 0 -4 7 147 164
385 400 215 214 391 390 391 392 0 1 -85 90 -189 196 l-189 194 -83 -88 c-76
-81 -147 -156 -309 -330 -121 -130 -227 -244 -299 -320 -75 -79 -201 -215
-417 -447 -60 -65 -113 -118 -118 -118 -5 0 -301 291 -658 647 -356 357 -651
649 -655 650 -5 2 -377 -366 -828 -817z"/>
<path d="M5193 4890 c-82 -12 -99 -18 -132 -46 -50 -41 -61 -100 -61 -309 0
-263 17 -307 134 -340 67 -18 365 -28 523 -17 195 15 236 46 242 188 l3 84
-106 0 c-105 0 -106 0 -106 -24 0 -13 -9 -34 -19 -47 -19 -24 -21 -24 -215
-24 -240 0 -237 -2 -244 124 -6 113 5 186 33 219 l23 27 179 0 c196 -1 220 -7
230 -56 l6 -29 103 0 104 0 0 48 c0 115 -42 176 -135 198 -66 15 -465 18 -562
4z"/>
<path d="M6220 4886 c-103 -22 -135 -63 -151 -190 -14 -109 -4 -353 16 -401
46 -110 79 -119 465 -119 373 0 411 8 460 102 33 65 30 450 -5 523 -22 47 -68
75 -139 88 -82 15 -575 13 -646 -3z m544 -176 c44 -16 58 -61 59 -183 l1 -110
-31 -27 c-28 -25 -42 -29 -130 -35 -116 -9 -300 0 -336 16 -38 17 -47 50 -47
167 0 116 10 149 50 169 30 15 395 18 434 3z"/>
<path d="M1010 4545 c0 -190 -1 -348 -2 -352 -2 -5 43 -9 100 -11 l102 -3 0
265 c0 268 4 296 36 265 7 -8 72 -129 143 -269 l129 -255 88 0 88 0 131 258
c72 141 136 262 142 268 29 29 33 -5 33 -267 l0 -264 100 0 100 0 0 355 0 355
-189 0 c-199 0 -201 0 -216 -49 -4 -13 -31 -73 -60 -135 -29 -61 -69 -146 -88
-188 -32 -70 -57 -98 -57 -66 0 6 -11 34 -24 62 -13 28 -54 119 -92 201 -37
83 -72 156 -77 163 -7 9 -59 12 -198 12 l-189 0 0 -345z"/>
<path d="M2703 4878 c-6 -7 -40 -71 -78 -143 -120 -229 -167 -318 -226 -427
-33 -59 -59 -111 -59 -117 0 -7 41 -11 118 -11 l118 0 32 65 32 65 232 -2 233
-3 33 -62 33 -63 120 0 c65 0 119 2 119 6 0 3 -24 51 -54 107 -54 102 -105
201 -231 442 -37 72 -72 136 -78 143 -7 9 -54 12 -172 12 -118 0 -165 -3 -172
-12z m260 -280 l67 -133 -151 -3 c-84 -1 -154 -1 -156 2 -3 2 25 63 62 135 88
174 88 174 178 -1z"/>
<path d="M3545 4878 c-3 -7 -4 -166 -3 -353 l3 -340 103 -3 102 -3 0 91 0 90
210 0 210 0 17 -26 c10 -16 19 -53 21 -91 l4 -64 102 3 101 3 -1 97 c-2 106
-15 141 -59 158 -30 12 -41 30 -17 30 10 0 31 14 48 31 l29 30 0 132 c0 113
-3 136 -19 160 -42 61 -44 62 -464 65 -307 2 -383 0 -387 -10z m639 -179 c22
-17 26 -28 26 -69 0 -31 -6 -55 -17 -69 -18 -21 -24 -22 -228 -19 l-210 3 -3
74 c-2 41 -1 80 2 88 4 10 47 13 204 13 186 0 201 -1 226 -21z"/>
<path d="M4600 4535 l0 -356 108 3 107 3 3 353 2 352 -110 0 -110 0 0 -355z"/>
<path d="M7220 4535 l0 -356 103 3 102 3 3 88 3 87 234 0 c212 0 240 2 289 21
40 14 61 29 76 54 44 71 44 309 0 379 -41 67 -62 70 -457 74 l-353 3 0 -356z
m602 165 c14 -11 28 -33 31 -49 8 -39 -10 -98 -33 -111 -11 -6 -98 -10 -204
-10 l-186 0 0 95 0 95 184 0 c167 0 185 -2 208 -20z"/>
<path d="M8395 4703 c-55 -104 -139 -262 -187 -352 -48 -91 -88 -166 -88 -168
0 -2 54 -3 119 -3 l119 0 35 63 34 62 233 0 233 0 35 -62 34 -63 114 0 c75 0
114 4 114 11 0 6 -26 61 -59 122 -54 104 -140 268 -252 482 l-47 90 -169 3
-169 2 -99 -187z m358 -110 l68 -133 -160 0 -161 0 63 123 c79 155 75 149 100
145 16 -2 38 -35 90 -135z"/>
<path d="M9060 3923 c-81 -7 -109 -32 -119 -108 -6 -36 -9 -40 -38 -43 -32 -3
-33 -5 -33 -47 0 -42 1 -44 33 -47 l32 -3 5 -125 5 -125 54 -3 c37 -2 57 1 62
10 5 7 9 66 9 130 l0 117 63 3 62 3 3 43 3 42 -65 0 c-63 0 -66 1 -66 25 0 30
26 45 79 45 l41 0 0 40 c0 27 -4 40 -14 40 -7 0 -26 2 -42 4 -16 2 -49 1 -74
-1z"/>
<path d="M1247 3868 c-45 -89 -167 -320 -198 -375 -16 -29 -29 -57 -29 -63 0
-6 32 -10 79 -10 l80 0 23 43 23 42 165 0 165 0 23 -42 23 -43 80 0 c43 0 79
3 79 6 0 7 -57 121 -117 234 -22 41 -61 117 -88 168 l-49 92 -116 0 -116 0
-27 -52z m207 -157 c25 -49 42 -91 39 -95 -8 -8 -198 -8 -206 1 -4 3 14 46 40
95 32 61 52 88 65 88 12 0 31 -26 62 -89z"/>
<path d="M1884 3905 c-44 -23 -57 -54 -57 -137 0 -79 11 -111 45 -129 12 -7
101 -16 202 -21 108 -5 185 -13 193 -20 22 -18 12 -61 -17 -69 -32 -9 -217 -9
-250 0 -14 4 -29 17 -35 29 -9 20 -17 22 -77 22 l-68 0 0 -43 c0 -96 48 -119
259 -125 187 -5 278 7 312 44 20 21 24 38 27 103 5 98 -11 135 -66 151 -20 7
-110 15 -200 19 -133 6 -166 11 -180 25 -13 13 -14 20 -6 34 10 14 31 17 142
20 131 3 131 3 148 -23 16 -24 21 -26 83 -23 l66 3 -3 40 c-3 49 -16 76 -45
95 -34 23 -430 26 -473 5z"/>
<path d="M2564 3901 c-37 -23 -54 -65 -54 -137 0 -124 19 -135 252 -146 182
-8 208 -14 208 -48 0 -35 -29 -45 -139 -48 -127 -5 -173 5 -181 37 -5 22 -10
23 -75 23 l-70 0 1 -45 c1 -105 44 -122 309 -122 170 0 194 2 230 20 51 25 69
73 62 163 -6 84 -27 107 -111 121 -35 6 -112 12 -172 12 -137 2 -168 8 -172
35 -6 39 18 45 154 42 123 -3 129 -4 139 -25 9 -21 17 -23 77 -23 l68 0 0 43
c0 23 -7 53 -16 66 -31 44 -69 51 -281 51 -177 0 -201 -2 -229 -19z"/>
<path d="M3270 3903 c-59 -30 -70 -67 -70 -233 0 -170 10 -203 75 -235 36 -18
60 -20 260 -20 252 0 286 7 319 65 18 31 21 52 21 180 0 258 5 254 -325 258
-219 2 -249 1 -280 -15z m435 -128 c23 -22 25 -32 25 -109 0 -79 -2 -86 -26
-105 -24 -19 -40 -21 -163 -21 -184 0 -185 1 -189 110 -4 103 2 128 31 140 12
5 84 9 160 9 133 1 139 0 162 -24z"/>
<path d="M4055 3905 c-70 -25 -85 -66 -85 -239 0 -171 15 -209 90 -236 53 -18
328 -25 413 -10 100 18 127 46 127 129 l0 61 -74 0 c-74 0 -75 0 -78 -27 -5
-45 -37 -54 -171 -51 -113 3 -120 4 -139 28 -17 21 -19 36 -16 118 4 123 3
122 169 122 132 0 159 -8 159 -46 0 -11 16 -14 70 -14 l70 0 0 53 c0 59 -16
89 -60 112 -41 21 -416 21 -475 0z"/>
<path d="M4702 3673 l3 -248 78 -3 77 -3 0 251 0 250 -80 0 -80 0 2 -247z"/>
<path d="M5173 3893 c-6 -15 -38 -77 -71 -138 -172 -322 -173 -325 -159 -331
8 -3 45 -4 83 -2 l69 3 23 43 23 42 159 0 159 0 20 -26 c11 -14 23 -34 26 -45
6 -17 16 -19 86 -19 57 0 79 4 79 13 0 6 -56 118 -124 247 l-123 235 -119 3
-119 3 -12 -28z m195 -181 c23 -48 42 -90 42 -94 0 -5 -47 -8 -105 -8 -65 0
-105 4 -105 10 0 12 67 149 82 168 24 28 43 11 86 -76z"/>
<path d="M5650 3860 l0 -59 108 -3 107 -3 3 -188 2 -188 78 3 77 3 5 185 5
185 108 3 107 3 0 59 0 60 -300 0 -300 0 0 -60z"/>
<path d="M6332 3673 l3 -248 73 -3 72 -3 0 251 0 250 -75 0 -75 0 2 -247z"/>
<path d="M6663 3905 c-61 -26 -68 -50 -68 -235 0 -254 1 -255 330 -255 259 0
288 7 320 70 17 35 20 60 20 185 -1 250 -1 250 -337 250 -175 -1 -241 -4 -265
-15z m432 -130 c23 -22 25 -32 25 -109 0 -80 -1 -86 -27 -106 -26 -20 -37 -21
-175 -18 -181 4 -183 5 -183 111 0 91 10 125 38 137 12 5 84 9 160 9 133 1
139 0 162 -24z"/>
<path d="M7380 3670 l0 -250 70 0 70 0 0 185 c0 141 3 185 13 185 6 0 31 -28
54 -63 46 -67 67 -97 156 -224 l59 -83 129 0 129 0 0 250 0 251 -72 -3 -73 -3
1 -182 c1 -137 -2 -183 -11 -183 -11 0 -56 61 -208 283 l-61 87 -128 0 -128 0
0 -250z"/>
<path d="M8415 3771 c-82 -21 -105 -60 -104 -173 1 -154 30 -180 212 -186 150
-6 216 8 252 49 23 28 25 38 25 129 0 54 -4 110 -10 124 -17 47 -61 60 -210
63 -74 1 -148 -1 -165 -6z m244 -106 c19 -19 21 -119 2 -138 -8 -8 -44 -12
-102 -12 -104 0 -119 10 -119 80 0 47 20 82 53 89 43 9 150 -3 166 -19z"/>
<path d="M1161 3127 c-73 -9 -115 -28 -133 -60 -14 -24 -19 -313 -6 -357 4
-14 25 -36 45 -50 38 -25 40 -25 263 -25 310 0 321 6 324 187 l1 93 -165 0
-165 0 -3 -47 -3 -48 94 0 c51 0 96 -3 99 -6 3 -3 3 -17 -1 -32 -7 -25 -12
-27 -72 -33 -35 -3 -108 -4 -162 -1 -118 6 -120 8 -121 134 -1 78 1 90 22 110
20 21 34 23 135 26 130 4 178 -5 192 -36 9 -20 17 -22 84 -22 l74 0 -7 48 c-8
62 -33 94 -87 110 -51 15 -314 21 -408 9z"/>
<path d="M1899 3127 c-107 -15 -127 -54 -127 -247 0 -153 11 -197 58 -225 33
-19 51 -20 270 -20 342 0 335 -5 335 247 0 190 -7 211 -80 236 -44 14 -371 21
-456 9z m361 -127 c25 -13 40 -62 40 -131 0 -47 -5 -63 -24 -86 l-24 -28 -146
0 c-138 0 -147 1 -168 23 -21 20 -23 32 -22 109 2 122 4 123 186 123 77 0 148
-4 158 -10z"/>
<path d="M8688 3129 c-62 -9 -87 -25 -104 -64 -17 -42 -18 -135 -2 -170 21
-46 54 -55 231 -62 89 -3 172 -10 185 -14 27 -10 32 -63 6 -73 -21 -8 -248 -8
-269 0 -9 4 -21 17 -26 30 -8 22 -15 24 -68 24 -67 0 -77 -8 -72 -60 8 -91 39
-104 264 -108 209 -5 258 1 295 33 25 21 27 30 31 109 3 92 -7 124 -50 146
-11 7 -99 15 -195 19 -187 8 -213 16 -200 59 8 25 43 32 152 32 91 0 134 -11
134 -35 0 -12 13 -15 65 -15 36 0 68 0 73 0 4 0 8 14 10 32 4 50 -29 95 -78
108 -46 13 -314 18 -382 9z"/>
<path d="M2520 3120 c0 -5 52 -115 116 -245 l115 -235 117 0 117 0 114 234
c63 129 113 238 113 243 -2 10 -107 16 -139 8 -13 -3 -23 -9 -23 -14 0 -16
-162 -346 -173 -353 -6 -4 -14 -5 -19 -2 -4 3 -48 88 -97 189 l-90 185 -75 0
c-43 0 -76 -4 -76 -10z"/>
<path d="M3317 3123 c-4 -3 -7 -114 -7 -245 l0 -238 270 0 270 0 0 55 0 55
-197 2 -198 3 0 40 0 40 188 3 187 2 0 50 0 50 -191 0 -190 0 3 38 3 37 198 3
198 2 -3 53 -3 52 -261 3 c-143 1 -263 -1 -267 -5z"/>
<path d="M3960 2886 l0 -244 70 -4 70 -3 0 52 c0 85 -2 83 119 83 98 0 174
-10 188 -24 3 -3 8 -28 11 -56 l5 -50 68 0 69 0 0 75 c0 68 -2 76 -25 91 -30
20 -32 31 -6 39 29 9 44 67 39 152 -8 128 -22 132 -365 133 l-243 0 0 -244z
m442 112 c26 -20 27 -77 2 -102 -12 -13 -41 -16 -154 -16 -152 0 -150 -1 -150
65 0 66 -2 65 149 65 94 0 142 -4 153 -12z"/>
<path d="M4687 3123 c-4 -3 -7 -114 -7 -245 l0 -238 77 0 76 0 -6 180 c-4 147
-3 180 8 180 8 0 71 -81 140 -180 l127 -180 129 0 129 0 0 245 0 246 -72 -3
-73 -3 0 -179 c0 -111 -4 -180 -10 -182 -5 -2 -25 21 -44 49 -19 29 -76 112
-128 185 l-94 132 -123 0 c-67 0 -126 -3 -129 -7z"/>
<path d="M5494 3117 c-2 -7 -3 -116 -2 -242 l3 -230 67 -3 68 -3 2 183 c2 148
6 183 17 183 8 0 52 -77 105 -182 l91 -182 63 -3 63 -3 93 185 c51 101 98 186
105 188 8 3 11 -47 11 -183 l0 -186 73 3 72 3 0 240 0 240 -132 3 -132 3 -55
-117 c-31 -64 -59 -126 -62 -138 -7 -28 -32 -61 -40 -53 -5 5 -78 160 -125
265 l-18 42 -131 0 c-96 0 -132 -3 -136 -13z"/>
<path d="M6458 3120 c-1 -5 -2 -116 0 -245 l3 -235 269 0 270 0 0 55 0 55
-200 0 -200 0 0 45 0 45 191 0 190 0 -3 48 -3 47 -188 3 -188 2 3 38 3 37 195
3 195 2 -3 55 -4 55 -263 0 c-165 0 -265 -4 -267 -10z"/>
<path d="M7110 2883 l0 -248 71 5 71 5 -1 178 c-2 139 1 177 11 177 7 0 51
-55 98 -121 125 -178 174 -243 183 -241 4 1 61 2 127 2 l120 0 -2 243 -3 242
-70 0 -70 0 0 -179 c0 -111 -4 -181 -10 -183 -5 -1 -46 49 -90 113 -113 163
-168 238 -180 246 -5 4 -65 8 -132 8 l-123 0 0 -247z"/>
<path d="M7884 3116 c-3 -7 -4 -35 -2 -62 l3 -49 95 -2 c52 -1 101 -2 107 -2
9 -1 13 -47 15 -178 l3 -178 72 -5 73 -5 2 180 3 180 110 5 c61 3 109 8 108
13 -2 4 -3 32 -3 62 l0 55 -290 0 c-238 0 -292 -3 -296 -14z"/>
</g>
</svg>
